<?xml version="1.0" standalone="no"?>
<!DOCTYPE svg PUBLIC "-//W3C//DTD SVG 20010904//EN"
 "http://www.w3.org/TR/2001/REC-SVG-20010904/DTD/svg10.dtd">
<svg version="1.0" xmlns="http://www.w3.org/2000/svg"
 width="700.000000pt" height="700.000000pt" viewBox="0 0 700.000000 700.000000"
 preserveAspectRatio="xMidYMid meet">
<metadata>
Created by potrace 1.11, written by Peter Selinger 2001-2013
</metadata>
<g transform="translate(0.000000,700.000000) scale(0.100000,-0.100000)"
fill="#000000" stroke="none">
<path d="M3429 6549 c-319 -34 -606 -244 -852 -624 -68 -107 -165 -289 -211
-399 l-16 -38 -57 6 c-32 4 -78 9 -102 12 -63 9 -344 8 -421 0 -216 -23 -363
-60 -505 -126 -74 -34 -179 -96 -211 -125 -121 -108 -185 -190 -239 -309 -29
-63 -38 -94 -61 -196 -15 -68 -12 -259 6 -360 49 -275 166 -518 425 -886 7 -9
7 -19 0 -28 -239 -326 -398 -669 -433 -931 -13 -98 -7 -287 13 -365 84 -343
356 -578 772 -669 49 -11 115 -22 148 -26 33 -4 71 -9 85 -11 14 -2 99 -4 190
-5 152 -1 216 2 342 17 l48 5 32 -73 c46 -104 102 -210 162 -306 28 -46 60
-98 70 -115 57 -93 235 -289 329 -362 122 -96 316 -183 442 -200 60 -8 186 -8
240 0 370 54 722 388 974 925 l59 125 39 -1 c21 -1 79 -5 128 -9 145 -12 479
-6 504 9 3 2 29 7 56 10 28 3 71 12 98 20 26 8 47 12 47 10 0 -2 46 13 103 32
100 35 229 96 255 121 7 7 16 13 20 13 8 0 60 44 121 103 99 95 182 245 217
394 24 99 24 309 0 429 -10 48 -39 160 -46 174 -4 8 -13 33 -20 55 -37 120
-177 379 -294 543 -36 51 -66 97 -66 102 0 4 35 58 78 120 169 241 299 519
342 729 5 25 12 60 16 76 3 17 7 89 9 160 3 161 -22 274 -90 410 -150 298
-461 471 -935 521 -73 8 -361 8 -418 0 -20 -3 -65 -8 -98 -11 l-61 -6 -86 173
c-69 141 -217 386 -245 408 -4 3 -20 23 -37 45 -42 57 -170 183 -241 237 -151
116 -309 181 -469 194 -38 3 -74 7 -80 8 -5 1 -40 -1 -76 -5z m245 -298 c240
-84 454 -310 643 -679 35 -68 63 -125 63 -127 0 -2 -15 -6 -32 -10 -193 -39
-542 -145 -742 -224 l-100 -39 -65 25 c-273 105 -560 193 -778 238 -18 4 -33
9 -33 12 0 14 121 239 168 313 99 154 221 295 327 377 80 62 212 123 295 136
59 10 197 -3 254 -22z m-1428 -1024 c2 -2 -7 -40 -20 -83 -51 -161 -128 -490
-151 -639 -3 -22 -8 -53 -11 -70 -2 -16 -6 -39 -8 -50 -3 -11 -5 -27 -5 -36
-1 -9 -45 -52 -98 -95 -54 -44 -116 -95 -137 -114 -134 -120 -175 -159 -302
-288 l-142 -144 -36 56 c-20 31 -51 80 -70 109 -126 197 -227 452 -242 608
-10 114 -10 130 -1 197 25 191 131 335 317 431 121 63 212 89 420 120 56 8
478 7 486 -2z m3020 1 c5 -3 33 -8 62 -12 93 -11 226 -50 322 -94 162 -74 294
-227 325 -377 13 -62 15 -74 16 -165 2 -220 -100 -486 -308 -801 l-46 -71
-146 149 c-80 82 -184 182 -231 223 -46 41 -91 81 -100 89 -8 8 -57 48 -107
88 -51 41 -93 79 -94 86 0 7 -2 21 -4 32 -11 58 -15 85 -20 130 -4 28 -10 66
-15 85 -5 19 -12 51 -15 70 -9 52 -53 250 -66 290 -5 19 -12 42 -14 51 -2 9
-17 61 -34 116 -17 55 -31 102 -31 105 0 2 26 6 57 7 32 1 59 4 61 6 6 5 378
-1 388 -7z m-2556 -84 c123 -30 350 -97 399 -117 33 -14 33 -15 13 -26 -12 -6
-68 -35 -125 -64 -56 -30 -125 -66 -152 -82 -132 -75 -279 -164 -368 -221 -53
-35 -101 -64 -106 -64 -4 0 3 48 16 108 13 59 26 115 28 125 10 43 48 180 77
275 l33 104 40 -7 c22 -3 87 -17 145 -31z m1819 -106 c22 -79 45 -156 50 -173
5 -16 21 -86 36 -155 15 -69 29 -131 31 -139 3 -8 -7 -5 -28 8 -197 129 -485
297 -680 395 l-77 40 52 18 c58 21 269 84 307 93 14 3 70 16 125 29 152 37
135 48 184 -116z m-933 -204 c347 -158 670 -342 978 -559 80 -56 130 -98 132
-110 2 -11 6 -49 9 -85 3 -36 8 -78 10 -95 22 -174 22 -740 0 -975 -1 -19 -6
-69 -10 -110 -4 -41 -8 -81 -8 -88 0 -15 -83 -77 -252 -189 -258 -172 -532
-326 -797 -449 -76 -35 -145 -64 -152 -64 -40 0 -424 192 -651 325 -164 96
-357 221 -476 309 l-77 56 -7 87 c-5 49 -9 99 -10 113 -18 194 -23 584 -11
810 7 140 25 337 32 361 11 39 394 290 699 459 184 102 468 239 496 240 9 0
52 -16 95 -36z m-1594 -991 c-8 -127 -8 -592 0 -710 6 -92 6 -93 -16 -81 -28
15 -436 423 -436 436 0 22 435 452 456 452 1 0 -1 -44 -4 -97z m3249 -133
c102 -102 191 -195 198 -208 11 -21 -1 -35 -197 -231 -114 -114 -218 -213
-229 -220 -22 -11 -22 -11 -16 71 8 107 9 617 1 731 l-6 87 31 -22 c18 -12
116 -106 218 -208z m-3516 -800 c49 -43 165 -142 226 -191 24 -20 54 -45 66
-55 18 -15 26 -39 38 -122 8 -57 19 -122 24 -145 5 -23 12 -58 15 -77 5 -35
41 -192 70 -305 8 -33 29 -103 45 -155 19 -59 27 -98 21 -104 -12 -12 -421
-13 -510 -2 -99 13 -278 60 -345 92 -150 70 -252 161 -308 277 -63 128 -75
262 -41 453 25 139 148 411 269 593 l68 101 161 -162 c89 -90 179 -179 201
-198z m3976 248 c136 -211 237 -444 269 -617 11 -61 15 -199 7 -251 -31 -200
-148 -345 -361 -444 -64 -30 -210 -71 -291 -82 -27 -3 -59 -9 -70 -11 -27 -7
-365 -10 -443 -5 -52 3 -62 7 -58 20 2 10 16 55 30 102 29 96 55 193 62 230 3
14 11 50 19 80 8 30 17 71 20 90 3 19 13 64 21 100 8 36 16 79 17 95 2 17 10
65 17 107 l13 78 96 77 c53 43 116 96 141 119 25 23 63 57 85 75 22 19 110
104 195 191 85 87 156 158 157 158 0 0 34 -51 74 -112z m-3271 -788 c143 -96
369 -228 565 -330 66 -34 124 -66 128 -70 11 -10 -204 -80 -383 -125 -71 -17
-152 -35 -183 -40 -35 -6 -38 -4 -52 29 -20 46 -107 358 -121 431 -2 11 -8 43
-14 70 -19 86 -19 85 -7 78 7 -3 37 -23 67 -43z m2183 -67 c-30 -137 -65 -270
-105 -401 l-32 -104 -45 7 c-88 13 -389 94 -529 142 l-53 19 103 52 c178 90
222 116 604 348 19 12 40 26 46 32 32 32 34 9 11 -95z m-998 -543 c81 -38 462
-155 635 -195 63 -15 116 -28 118 -30 6 -6 -120 -242 -173 -325 -177 -276
-374 -444 -584 -497 -14 -3 -65 -7 -113 -9 -71 -1 -101 3 -165 25 -198 66
-389 240 -552 501 -34 55 -161 295 -161 305 0 3 69 20 115 29 130 25 464 129
660 205 l100 39 50 -19 c27 -11 59 -24 70 -29z"/>
</g>
</svg>
